<svg xmlns="http://www.w3.org/2000/svg" viewBox="0 0 229.99 260.51"><defs><style>.cls-1{fill:#19425c;}.cls-1,.cls-2{stroke:#fff;stroke-miterlimit:10;}.cls-2{fill:#8a1812;}.cls-3{fill:#fff;}</style></defs><g id="Layer_2" data-name="Layer 2"><g id="Layer_3" data-name="Layer 3"><path class="cls-1" d="M116.7,259.84V1.49c32.25,24,67.61,34.84,106.87,29.42C221.85,35.88,270.25,235.87,116.7,259.84Z"/><path class="cls-2" d="M113.29,259.84V1.49C81,25.44,45.68,36.33,6.42,30.91,8.14,35.88-40.27,235.87,113.29,259.84Z"/><path class="cls-3" d="M115.58,99.58c11.34-2.44,16.8-17,11.63-26.16,6.7,9.57,9.6,19.4,10,27.61,3.38,4.28,23.63,8.08,36.84,3.24-2.13-5.43-7.34-14-12.89-17.21,4.69-.8,10.68,2,17.06,5.83-1.08-13-10.9-18.93-23.75-23.11,3.94-2,9.51-1.68,15.76-.43-6.8-13.49-31.85-15.76-37.24-20.56-1.29,2.89-4,4.27-7.24,5,13.6-11.34,12.41-23,6.48-32.4,2.16,10.37-7,26.89-18.36,27.43-12.31-4.1-21,1.51-30.88,1.94-3.33-.55-6.84,6.16-1.08,9.5C70.73,57.43,57.71,66.19,50.8,64c-10.58-.1-13.6,12.43-3,16.2-1.08-2.38-.68-4.64.87-5.83a20.49,20.49,0,0,0,6.91,7.23c-.48-2-.63-4.72.75-6.37a11.8,11.8,0,0,0,7.89,6.59A9.18,9.18,0,0,1,62.7,75a8.53,8.53,0,0,0,7.53.82c8.9-3.28,16.93-4.33,25.84.48a54.79,54.79,0,0,0-17,3.41c-9.39,3.67-13.66,9.17-22.45,11.12-8,1.86-15.4-2.2-22.68-8.1,0,6.59,16.85,17.6,32.5,9.83,9.6-6.31,19.61-9.65,30.08-9.62-5.68,5.74-11.88,16.1-19,14.8a11.69,11.69,0,0,1-8.2-4c-.51,1.94-.57,3.75.86,5.19-3,.68-5.34-1-7.56-3.29-.48,2.26-.35,4.19.65,5.66-2.88.53-5.47-.4-8-1.73.16,3.71,4,6.76,9.5,9.51C72.17,104.23,107.84,94.38,115.58,99.58ZM92.91,60.69c-1.25.12-3.53.67-4.32,1.59-4.7-4.43,3.67-7.07,7.39-5.67a11.07,11.07,0,0,0,4.37,0C98.47,59,96.82,60.22,92.91,60.69Z"/><path class="cls-3" d="M124.05,130.66c-.25.22-.5.45-.75.66h36.28c0-.22,0-.44,0-.66Z"/><path class="cls-3" d="M163.83,130.66c.11.21.23.43.34.66h4l.12-.66Z"/><path class="cls-1" d="M212.35,126A34.76,34.76,0,0,0,202,122.29c-12.62-2.9-29.26-20.81-40.67-19.93a13,13,0,0,1-6.61,4.74c6.28-2,7.69-9.48,14.44-15.95-11,.62-21.94,3.79-28.32,12.19-8-2.21-16.31-1.33-24.69,3.06V217.55a11.17,11.17,0,0,0,7.9-2.58c-7.7-5.72-7.41-19.58-2.32-29.65a18.42,18.42,0,0,0,14.51,17.27c-3.66-12.1-.19-25.61,6.38-33.68-.28,4.79,1.87,7.69,5,8.82a18.39,18.39,0,0,1,3.56-12.94c5.91-7.32,31.34-8.73,33.66,3.5,6.12-1.91,14.56-8.1,14.65-15.79-3.09,3.37-5.57,4.67-8.91,4.31,1.08-2.2,1.74-4.12.57-5.91a7.45,7.45,0,0,1-6.47,2c-7.93-6.91-17.11-9.25-27.12-8.62,1.58-5.92,3.94-10.41,9-11.25,8,0,21.28,8.42,21.48,8.53,2.34,1.13,1.71,2.34.66,5a8.43,8.43,0,0,0,7.5-4.69,10.35,10.35,0,0,1-.07,7.47c6.84-2.72,11.44-7.86,15.08-15.44C213.58,128.81,214.26,127,212.35,126Zm-40-4.44c-4.74-2.41-9.06-3.93-12.85-4.31,8.91-7.93,15.22,2,17.21,0C176.73,119.06,175.29,120.67,172.37,121.54Z"/><path class="cls-2" d="M113.29,105.83a34.7,34.7,0,0,0-9.87,1.43c3.74-3.57,2.87-8.15-.54-13.28-3.39,13.28-39.28,11.38-45.51,25.74-.35,3.76.39,6.73,2.17,8.93-4,1.56-11.74,7.29-14.69,11.79a14.21,14.21,0,0,0,3,6c-6.78,2-15.91,6.81-21.34,12.86a10.38,10.38,0,0,0,2.44,7.32c1.15,6.95,5.28,11.18,10.7,14.22a9.62,9.62,0,0,1,.42-10c1.27,2.52,4.41,4.31,7.1,5.06-.66-5.07,1.15-7.45,4.4-8.66,7.47-2.48,12.82,1.78,14.84,7.62-7-.85-16.18,4-16.79,8.66a2.17,2.17,0,0,0,2.12,2.42c4.4.05,8.4-3.44,13.51,1.29a.76.76,0,0,0,.26.15c-2.09,3.8-6.09,6.7-12.38,7.08C48.9,194,45.28,190.62,42.2,188c-.4,4.74,4.61,10.16,7.25,10.9,5.35,17.54,22.82-11.85,42.19-8.12,15.53-1.74,14-24.85,8.66-32,22.87,19.36,3.35,49-19.9,41.06,4.37,4.45,11.24,10.09,18.75,5.42-10.76,6.57-22.21,20.45-17.35,33.95,8-11.77,17.63-17.23,31.49-20.79Zm-59.15,42.9c1,.32.67-4.38,1.84-6.33a4,4,0,0,1,3.1-1.49c4.76-.37,6.22-.07,9.78-1.2C67.54,144,60.62,150.24,54.14,148.73Zm37.77-12.49c1-16.39-16.32-19.91-17.07-11C73.76,107.6,104,120.12,91.91,136.24Z"/><path class="cls-3" d="M116.7,260.36a10,10,0,0,1-3.41,0V.8a2.21,2.21,0,0,1,3.41,0Z"/></g></g></svg>